<svg xmlns="http://www.w3.org/2000/svg" xmlns:xlink="http://www.w3.org/1999/xlink" version="1.1" x="0px" y="0px" viewBox="0 0 100 125" style="enable-background:new 0 0 100 100;" xml:space="preserve"><g><path d="M67.2,65.1C70.2,57.8,77.2,53,85.1,53l5.8,0l-4.2-4.1c-2.2-2.2-4.8-3.9-7.7-5c-6-2.4-12.5-2.3-18.4,0.2   c-5.9,2.5-10.5,7.2-12.9,13.2c-2.4,6-2.3,12.5,0.2,18.4c2.5,5.9,7.2,10.5,13.2,12.9c2.9,1.2,5.9,1.7,9,1.7c0,0,0.1,0,0.1,0l5.8,0   l-4.2-4.1C66.1,80.7,64.3,72.4,67.2,65.1L67.2,65.1z M64.5,84.7c-0.6-0.2-1.2-0.4-1.7-0.6c-4.8-1.9-8.5-5.6-10.6-10.3   s-2.1-10-0.2-14.8c1.9-4.8,5.6-8.5,10.3-10.6c2.4-1,5-1.6,7.6-1.6c2.4,0,4.9,0.5,7.2,1.4c0.6,0.2,1.1,0.5,1.7,0.8   c-7.2,1.9-13.2,7.1-16,14.3C60,70.5,60.7,78.4,64.5,84.7z"/><rect x="50.6" y="12.9" transform="matrix(0.2636 -0.9646 0.9646 0.2636 26.2932 64.9111)" width="10.1" height="4.7"/><rect x="12.2" y="33.6" transform="matrix(0.2637 -0.9646 0.9646 0.2637 -26.568 42.546)" width="4.7" height="10.1"/><rect x="35.1" y="10.3" transform="matrix(0.96 -0.28 0.28 0.96 -2.81 11.1097)" width="4.7" height="10.1"/><rect x="9.7" y="54.5" transform="matrix(0.96 -0.28 0.28 0.96 -15.3296 6.4006)" width="10.1" height="4.7"/><rect x="20.6" y="19" transform="matrix(0.7003 -0.7139 0.7139 0.7003 -10.3034 23.6135)" width="4.7" height="10.1"/><rect x="8.2" y="45.7" transform="matrix(0.7073 -0.7069 0.7069 0.7073 -20.0946 47.5733)" width="78.4" height="4.7"/><path d="M26.1,61.1l3.4-3.4c-2.7-4.5-3.6-10-2.1-15.5c2.9-10.7,14-17,24.7-14.1c1.8,0.5,3.4,1.2,4.9,2.1l3.4-3.4   c-2.1-1.4-4.5-2.5-7.1-3.2c-13.2-3.6-26.9,4.2-30.5,17.4C20.9,48.1,22.3,55.4,26.1,61.1z"/></g></svg>