<svg xmlns:dc="http://purl.org/dc/elements/1.1/" xmlns:cc="http://creativecommons.org/ns#" xmlns:rdf="http://www.w3.org/1999/02/22-rdf-syntax-ns#" xmlns:svg="http://www.w3.org/2000/svg" xmlns="http://www.w3.org/2000/svg" xmlns:sodipodi="http://sodipodi.sourceforge.net/DTD/sodipodi-0.dtd" xmlns:inkscape="http://www.inkscape.org/namespaces/inkscape" viewBox="0 0 32 40.00000125" version="1.1" x="0px" y="0px"><g transform="translate(0,-1020.3622)"><path style="" d="m 13.4997,1024.3622 -12,20.25 5.9688,0 -1.3047,-2.2598 3.9785,-6.8711 3.8008,0.01 0,-2.8203 0,-0.875 4.2695,0 z m 6.6523,12.2891 c -0.2662,0.1977 -0.5218,0.4117 -0.7578,0.6504 l -0.1679,0.1699 1.1347,1.9668 z" fill="#000000" fill-rule="evenodd" stroke="none"/><path style="opacity:1;fill:#000000;fill-opacity:1;stroke:none;stroke-width:1.5;stroke-linecap:butt;stroke-linejoin:miter;stroke-miterlimit:4;stroke-dasharray:none;stroke-opacity:1" d="m 14.8181,1032.6669 0,2.8223 3.2675,0 0.6856,1.1894 c 1.3299,-1.3447 3.1243,-2.138 5.0215,-2.1934 0.6091,-0.017 1.2025,0.049 1.7754,0.1739 l 0,-1.9961 z"/><path d="m 17.5705,1048.3622 -6.9341,-0.01 -3.4621,-6.0007 3.4719,-5.9951 6.934,0.01 3.4622,6.0008 z" style="opacity:1;fill:#000000;fill-opacity:1;stroke:none;stroke-width:1.00000024;stroke-linecap:round;stroke-linejoin:round;stroke-miterlimit:4;stroke-dasharray:none;stroke-dashoffset:0;stroke-opacity:1"/><path style="opacity:1;fill:#000000;fill-opacity:1;stroke:none;stroke-width:1.00000012;stroke-linecap:round;stroke-linejoin:round;stroke-miterlimit:4;stroke-dasharray:none;stroke-dashoffset:0;stroke-opacity:1" d="m 23.8181,1035.3642 a 6.5000005,6.5 0 0 0 -4.5957,2.0996 l 2.83,4.9043 -2.4668,4.2617 a 6.5000005,6.5 0 0 0 5.9707,1.5429 6.5000005,6.5 0 0 0 4.8848,-7.1855 6.5000005,6.5 0 0 0 -6.623,-5.623 z"/></g></svg>